<svg width="21" height="20" viewBox="0 0 21 20" fill="none" xmlns="http://www.w3.org/2000/svg">
<g clip-path="url(#clip0_2505_17)">
<path d="M7.83443 18.2048C6.92633 18.2048 5.99162 18.1347 5.05131 17.9944C3.39515 17.7469 1.71864 16.9218 1.24424 16.6748L0 16.0269L1.3471 15.605C2.81965 15.1439 3.71542 14.8578 4.82428 14.4098C3.71398 13.8977 2.85827 12.9765 2.44635 11.7857L2.13296 10.8796L2.38995 10.917C2.14626 10.6831 1.95384 10.4457 1.80468 10.2298C1.2742 9.46241 0.993343 8.52476 1.0531 7.72123L1.11206 6.93037L1.60922 7.11378C1.39949 6.73658 1.24793 6.33375 1.15885 5.91154C0.941754 4.88187 1.12344 3.78797 1.67058 2.8314L2.10364 2.07426L2.68283 2.73679C4.51459 4.83244 6.83468 6.07557 9.58833 6.43949C9.47585 5.70112 9.56013 4.98853 9.83907 4.3498C10.1638 3.60609 10.7416 2.97544 11.5093 2.52592C12.362 2.0268 13.396 1.78495 14.4209 1.84492C15.5083 1.90855 16.4956 2.29658 17.2797 2.96781C17.6626 2.87305 17.9447 2.77189 18.3261 2.63517C18.5555 2.55293 18.8157 2.45954 19.1412 2.35273L20.3409 1.95905L19.5586 4.08704C19.6102 4.08292 19.6634 4.07941 19.719 4.07713L21.0001 4.02189L20.2429 5.00745C20.1995 5.06391 20.1884 5.07993 20.173 5.10206C20.112 5.18964 20.0361 5.29859 18.9967 6.62031C18.7365 6.95127 18.6066 7.38233 18.6308 7.8343C18.7229 9.55183 18.5017 11.1058 17.9728 12.4528C17.4726 13.7272 16.6975 14.8207 15.6692 15.7028C14.3967 16.7941 12.7742 17.5413 10.8465 17.9234C9.90091 18.1108 8.88546 18.2048 7.83443 18.2048V18.2048Z" fill="white"/>
</g>
<defs>
<clipPath id="clip0_2505_17">
<rect width="21" height="20" fill="white"/>
</clipPath>
</defs>
</svg>
